<svg width="20" height="20" fill="none" xmlns="http://www.w3.org/2000/svg"><g clip-path="url(#clip0_3753_22)"><path d="M15.832 0H4.228c-.945 0-1.775.777-1.775 1.698v17.166c0 .308.086.565.224.763a.868.868 0 00.717.373c.27 0 .557-.12.822-.347l5.192-4.408a.98.98 0 01.63-.215c.24 0 .469.078.63.216l5.174 4.407c.266.227.534.347.803.347.455 0 .9-.351.9-1.136V1.698c0-.92-.768-1.698-1.713-1.698z" fill="#42204E"/></g><defs><clipPath id="clip0_3753_22"><path fill="#fff" d="M0 0h20v20H0z"/></clipPath></defs></svg>