<svg width="20" height="20" fill="none" xmlns="http://www.w3.org/2000/svg"><g clip-path="url(#clip0_3702_280)" fill="#925FA4"><path d="M17.816 14.094a5.582 5.582 0 01-1.982-4.27V7.5c0-2.933-2.179-5.36-5-5.767v-.9a.833.833 0 10-1.667 0v.9c-2.823.407-5 2.834-5 5.767v2.323a5.59 5.59 0 01-1.99 4.278 1.46 1.46 0 00.948 2.566h13.75a1.46 1.46 0 00.941-2.573zM10 20a3.13 3.13 0 003.062-2.5H6.938A3.13 3.13 0 0010 20z"/></g><defs><clipPath id="clip0_3702_280"><path fill="#fff" d="M0 0h20v20H0z"/></clipPath></defs></svg>