<svg width="20" height="20" fill="none" xmlns="http://www.w3.org/2000/svg"><g clip-path="url(#clip0_3753_26)"><path d="M9.858 9.634c1.324 0 2.47-.475 3.406-1.411.937-.937 1.411-2.082 1.411-3.406 0-1.323-.474-2.47-1.41-3.406C12.326.475 11.181 0 9.857 0c-1.324 0-2.47.475-3.406 1.411-.936.937-1.411 2.082-1.411 3.406 0 1.324.475 2.47 1.411 3.406.937.936 2.083 1.411 3.406 1.411z" fill="url(#paint0_linear_3753_26)"/><path d="M18.286 15.379c-.027-.39-.081-.815-.162-1.264a9.968 9.968 0 00-.31-1.27 6.277 6.277 0 00-.523-1.185 4.471 4.471 0 00-.788-1.027 3.473 3.473 0 00-1.131-.71 3.91 3.91 0 00-1.444-.262c-.205 0-.402.084-.783.332-.235.153-.51.33-.816.526-.262.167-.617.323-1.055.465a4.19 4.19 0 01-1.29.208c-.43 0-.864-.07-1.292-.208-.438-.142-.793-.298-1.054-.465-.304-.194-.578-.371-.817-.526-.38-.248-.578-.332-.782-.332-.52 0-1.006.088-1.444.261a3.47 3.47 0 00-1.132.711c-.297.285-.562.63-.787 1.027-.218.382-.393.78-.523 1.185-.125.39-.23.818-.31 1.27-.08.448-.135.874-.162 1.264-.027.383-.04.78-.04 1.182 0 1.044.331 1.889.986 2.512.646.615 1.502.927 2.542.927h9.63c1.04 0 1.895-.312 2.541-.927.655-.623.987-1.468.987-2.513 0-.403-.014-.8-.04-1.181z" fill="url(#paint1_linear_3753_26)"/></g><defs><linearGradient id="paint0_linear_3753_26" x1="5.041" y1="4.817" x2="14.675" y2="4.817" gradientUnits="userSpaceOnUse"><stop stop-color="#EE0979"/><stop offset="1" stop-color="#FF6A00"/></linearGradient><linearGradient id="paint1_linear_3753_26" x1="1.641" y1="14.83" x2="18.327" y2="14.83" gradientUnits="userSpaceOnUse"><stop stop-color="#EE0979"/><stop offset="1" stop-color="#FF6A00"/></linearGradient><clipPath id="clip0_3753_26"><path fill="#fff" d="M0 0h20v20H0z"/></clipPath></defs></svg>