<svg width="18" height="20" fill="none" xmlns="http://www.w3.org/2000/svg"><path d="M13.453 14.297a.781.781 0 100-1.563.781.781 0 000 1.563z" fill="#8B5D9A"/><path d="M16.969 14.14c.431 0 .781-.35.781-.78v-2.891a3.129 3.129 0 00-3.125-3.125h-.939V4.589C13.686 2.059 11.583 0 9 0 6.414 0 4.31 2.058 4.31 4.589v2.755h-.936A3.129 3.129 0 00.25 10.469v6.406A3.129 3.129 0 003.375 20h11.25a3.129 3.129 0 003.125-3.125.781.781 0 10-1.563 0c0 .862-.7 1.563-1.562 1.563H3.375a1.565 1.565 0 01-1.563-1.563v-6.406c0-.862.701-1.563 1.563-1.563h11.25c.862 0 1.563.701 1.563 1.563v2.89c0 .432.35.782.78.782zm-4.845-6.796h-6.25V4.589c0-1.669 1.401-3.027 3.125-3.027 1.723 0 3.125 1.358 3.125 3.027v2.755z" fill="#8B5D9A"/><path d="M7.555 14.297a.781.781 0 100-1.563.781.781 0 000 1.563zm-2.93 0a.781.781 0 100-1.563.781.781 0 000 1.563zm5.859 0a.781.781 0 100-1.563.781.781 0 000 1.563z" fill="#8B5D9A"/></svg>