<svg width="26" height="26" fill="none" xmlns="http://www.w3.org/2000/svg"><path d="M24.053 4.483H1.947A1.947 1.947 0 000 6.43v13.14c0 1.075.872 1.947 1.947 1.947h22.106A1.947 1.947 0 0026 19.57V6.43a1.947 1.947 0 00-1.947-1.947z" fill="#F5F5F5"/><path d="M.107 5.793h25.786a1.948 1.948 0 00-1.84-1.31H1.947c-.852 0-1.576.548-1.84 1.31zM26 9.724H0v1.31h26v-1.31zm0-2.621H0v1.31h26v-1.31zM0 13.207c0 .247.2.448.448.448H26v-1.31H0v.862zm26 4.38H0v1.31h26v-1.31zm-.107 2.62H.107c.264.762.988 1.31 1.84 1.31h22.106c.852 0 1.576-.548 1.84-1.31zM26 14.966H0v1.31h26v-1.31z" fill="#FF4B55"/><path d="M.448 13.655h11.207c.248 0 .449-.2.449-.448V4.93a.448.448 0 00-.449-.448H1.947A1.947 1.947 0 000 6.43v6.777c0 .247.2.448.448.448z" fill="#41479B"/><path d="M1.259 5.512l.099.297.314.003c.04 0 .057.052.024.076l-.252.186.095.3a.042.042 0 01-.065.047l-.255-.183-.255.183a.042.042 0 01-.065-.048l.094-.299-.252-.186a.042.042 0 01.025-.076l.313-.003.1-.297a.042.042 0 01.08 0zm0 1.556l.099.298.314.002c.04 0 .057.052.024.077l-.252.186.095.299a.042.042 0 01-.065.047l-.255-.182-.255.182a.042.042 0 01-.065-.047l.094-.299-.252-.186a.042.042 0 01.025-.077l.313-.002.1-.298a.042.042 0 01.08 0zm0 1.557l.099.298.314.002c.04 0 .057.052.024.076l-.252.187.095.299a.042.042 0 01-.065.047l-.255-.183-.255.183a.042.042 0 01-.065-.047l.094-.3-.252-.186a.042.042 0 01.025-.076l.313-.002.1-.298a.042.042 0 01.08 0zm0 1.557l.099.297.314.003c.04 0 .057.052.024.076l-.252.186.095.3a.042.042 0 01-.065.046l-.255-.182-.255.183a.042.042 0 01-.065-.048l.094-.299-.252-.186a.042.042 0 01.025-.076l.313-.003.1-.297a.042.042 0 01.08 0zm0 1.556l.099.298.314.002c.04 0 .057.052.024.076l-.252.187.095.299a.042.042 0 01-.065.047l-.255-.182-.255.182a.042.042 0 01-.065-.047l.094-.299-.252-.186a.042.042 0 01.025-.077l.313-.002.1-.298a.042.042 0 01.08 0zm1.208-5.463l.1.297.313.003c.04 0 .057.052.025.076l-.253.186.095.3a.042.042 0 01-.065.047L2.427 7l-.255.183a.042.042 0 01-.065-.048l.095-.299-.253-.186a.042.042 0 01.025-.076l.314-.003.099-.297a.042.042 0 01.08 0zm0 1.557l.1.297.313.003c.04 0 .057.052.025.076l-.253.186.095.3a.042.042 0 01-.065.046l-.255-.182-.255.182a.042.042 0 01-.065-.047l.095-.299-.253-.186a.042.042 0 01.025-.076l.314-.003.099-.297a.042.042 0 01.08 0zm0 1.556l.1.298.313.002c.04 0 .057.052.025.076l-.253.187.095.299a.042.042 0 01-.065.047l-.255-.182-.255.182a.042.042 0 01-.065-.047l.095-.3-.253-.186a.042.042 0 01.025-.076l.314-.002.099-.298a.042.042 0 01.08 0zm0 1.557l.1.297.313.003c.04 0 .057.052.025.076l-.253.186.095.3a.042.042 0 01-.065.047l-.255-.183-.255.183a.042.042 0 01-.065-.047l.095-.3-.253-.186a.042.042 0 01.025-.076l.314-.003.099-.297a.042.042 0 01.08 0zm1.208-5.433l.1.297.313.003c.04 0 .058.052.025.076l-.252.186.094.3a.042.042 0 01-.065.046l-.255-.182-.255.182a.042.042 0 01-.065-.047l.095-.299-.253-.186a.042.042 0 01.025-.076l.314-.003.1-.297a.042.042 0 01.08 0zm0 1.556l.1.298.313.002c.04 0 .058.052.025.077l-.252.186.094.299a.042.042 0 01-.065.047l-.255-.182-.255.182a.042.042 0 01-.065-.047l.095-.3-.253-.185a.042.042 0 01.025-.077l.314-.002.1-.298a.042.042 0 01.08 0zm0 1.557l.1.298.313.002c.04 0 .058.052.025.076l-.252.187.094.299a.042.042 0 01-.065.047l-.255-.183-.255.183a.042.042 0 01-.065-.047l.095-.3-.253-.186a.042.042 0 01.025-.076l.314-.002.1-.298a.042.042 0 01.08 0zm0 1.557l.1.297.313.003c.04 0 .058.052.025.076l-.252.186.094.3a.042.042 0 01-.065.046l-.255-.182-.255.182a.042.042 0 01-.065-.047l.095-.299-.253-.186a.042.042 0 01.025-.076l.314-.003.1-.297a.042.042 0 01.08 0zm0 1.556l.1.298.313.002c.04 0 .058.052.025.076l-.252.187.094.299a.042.042 0 01-.065.047l-.255-.182-.255.182a.042.042 0 01-.065-.047l.095-.3-.253-.186a.042.042 0 01.025-.076l.314-.002.1-.298a.042.042 0 01.08 0zm1.209-5.463l.099.297.313.003c.041 0 .058.052.025.076l-.252.186.095.3a.042.042 0 01-.065.047L4.843 7l-.255.183a.042.042 0 01-.065-.048l.095-.299-.252-.186a.042.042 0 01.025-.076l.313-.003.1-.297a.042.042 0 01.08 0zm0 1.557l.099.297.313.003c.041 0 .058.052.025.076l-.252.186.095.3a.042.042 0 01-.065.046l-.256-.182-.255.182a.042.042 0 01-.065-.047l.095-.299-.252-.186a.042.042 0 01.025-.076l.313-.003.1-.297a.042.042 0 01.08 0zm0 1.556l.099.298.313.002c.041 0 .058.052.025.076l-.252.187.095.299a.042.042 0 01-.065.047l-.256-.182-.255.182a.042.042 0 01-.065-.047l.095-.3-.252-.186a.042.042 0 01.025-.076l.313-.002.1-.298a.042.042 0 01.08 0zm0 1.557l.099.297.313.003c.041 0 .058.052.025.076l-.252.186.095.3a.042.042 0 01-.065.047l-.256-.183-.255.183a.042.042 0 01-.065-.047l.095-.3-.252-.186a.042.042 0 01.025-.076l.313-.003.1-.297a.042.042 0 01.08 0zm1.208-5.433l.099.297.314.003c.04 0 .057.052.024.076l-.252.186.095.3a.042.042 0 01-.065.046l-.255-.182-.255.182a.042.042 0 01-.065-.047l.094-.299-.252-.186a.042.042 0 01.025-.076l.313-.003.1-.297a.042.042 0 01.08 0zm0 1.556l.099.298.314.002c.04 0 .057.052.024.077l-.252.186.095.299a.042.042 0 01-.065.047l-.255-.182-.255.182a.042.042 0 01-.065-.047l.094-.3-.252-.185a.042.042 0 01.025-.077l.313-.002.1-.298a.042.042 0 01.08 0zm0 1.557l.099.298.314.002c.04 0 .057.052.024.076l-.252.187.095.299a.042.042 0 01-.065.047l-.255-.183-.255.183a.042.042 0 01-.065-.047l.094-.3-.252-.186a.042.042 0 01.025-.076l.313-.002.1-.298a.042.042 0 01.08 0zm0 1.557l.099.297.314.003c.04 0 .057.052.024.076l-.252.186.095.3a.042.042 0 01-.065.046l-.255-.182-.255.182a.042.042 0 01-.065-.047l.094-.299-.252-.186a.042.042 0 01.025-.076l.313-.003.1-.297a.042.042 0 01.08 0zm0 1.556l.099.298.314.002c.04 0 .057.052.024.076l-.252.187.095.299a.042.042 0 01-.065.047l-.255-.182-.255.182a.042.042 0 01-.065-.047l.094-.3-.252-.186a.042.042 0 01.025-.076l.313-.002.1-.298a.042.042 0 01.08 0zM7.3 6.275l.1.297.313.003c.04 0 .057.052.025.076l-.253.186.095.3a.042.042 0 01-.065.047L7.26 7l-.255.183a.042.042 0 01-.065-.048l.095-.299-.253-.186a.042.042 0 01.025-.076l.314-.003.099-.297a.042.042 0 01.08 0zm0 1.557l.1.297.313.003c.04 0 .057.052.025.076l-.253.186.095.3a.042.042 0 01-.065.046l-.255-.182-.255.182a.042.042 0 01-.065-.047l.095-.299-.253-.186a.042.042 0 01.025-.076l.314-.003.099-.297a.042.042 0 01.08 0zm0 1.556l.1.298.313.002c.04 0 .057.052.025.076l-.253.187.095.299a.042.042 0 01-.065.047l-.255-.182-.255.182a.042.042 0 01-.065-.047l.095-.3-.253-.186a.042.042 0 01.025-.076l.314-.002.099-.298a.042.042 0 01.08 0zm0 1.557l.1.297.313.003c.04 0 .057.052.025.076l-.253.186.095.3a.042.042 0 01-.065.047l-.255-.183-.255.183a.042.042 0 01-.065-.047l.095-.3-.253-.186a.042.042 0 01.025-.076l.314-.003.099-.297a.042.042 0 01.08 0zm1.208-5.433l.1.297.313.003c.04 0 .058.052.025.076l-.252.186.094.3a.042.042 0 01-.065.046l-.255-.182-.255.182a.042.042 0 01-.065-.047l.095-.299-.252-.186a.042.042 0 01.024-.076l.314-.003.1-.297a.042.042 0 01.08 0zm0 1.556l.1.298.313.002c.04 0 .058.052.025.077l-.252.186.094.299a.042.042 0 01-.065.047l-.255-.182-.255.182a.042.042 0 01-.065-.047l.095-.3-.252-.185a.042.042 0 01.024-.077l.314-.002.1-.298a.042.042 0 01.08 0zm0 1.557l.1.298.313.002c.04 0 .058.052.025.076l-.252.187.094.299a.042.042 0 01-.065.047l-.255-.183-.255.183a.042.042 0 01-.065-.047l.095-.3-.252-.186a.042.042 0 01.024-.076l.314-.002.1-.298a.042.042 0 01.08 0zm0 1.557l.1.297.313.003c.04 0 .058.052.025.076l-.252.186.094.3a.042.042 0 01-.065.046l-.255-.182-.255.182a.042.042 0 01-.065-.047l.095-.299-.252-.186a.042.042 0 01.024-.076l.314-.003.1-.297a.042.042 0 01.08 0zm0 1.556l.1.298.313.002c.04 0 .058.052.025.076l-.252.187.094.299a.042.042 0 01-.065.047l-.255-.182-.255.182a.042.042 0 01-.065-.047l.095-.3-.252-.186a.042.042 0 01.024-.076l.314-.002.1-.298a.042.042 0 01.08 0zm1.209-5.463l.099.297.313.003c.041 0 .058.052.025.076l-.252.186.095.3a.042.042 0 01-.065.047L9.677 7l-.256.183a.042.042 0 01-.065-.048l.095-.299-.252-.186a.042.042 0 01.025-.076l.313-.003.1-.297a.042.042 0 01.08 0zm0 1.557l.099.297.313.003c.041 0 .058.052.025.076l-.252.186.095.3a.042.042 0 01-.065.046l-.255-.182-.256.182a.042.042 0 01-.065-.047l.095-.299-.252-.186a.042.042 0 01.025-.076l.313-.003.1-.297a.042.042 0 01.08 0zm0 1.556l.099.298.313.002c.041 0 .058.052.025.076l-.252.187.095.299c.012.039-.032.07-.065.047l-.255-.182-.256.182a.042.042 0 01-.065-.047l.095-.3-.252-.186a.042.042 0 01.025-.076l.313-.002.1-.298a.042.042 0 01.08 0zm0 1.557l.099.297.313.003c.041 0 .058.052.025.076l-.252.186.095.3a.042.042 0 01-.065.047l-.255-.183-.256.183a.042.042 0 01-.065-.047l.095-.3-.252-.186a.042.042 0 01.025-.076l.313-.003.1-.297a.042.042 0 01.08 0zm1.208-5.433l.1.297.313.003c.04 0 .057.052.025.076l-.253.186.095.3a.042.042 0 01-.065.046l-.255-.182-.255.182c-.033.024-.077-.008-.065-.047l.094-.299-.252-.186a.042.042 0 01.025-.076l.313-.003.1-.297a.042.042 0 01.08 0zm0 1.556l.1.298.313.002c.04 0 .057.052.025.077l-.253.186.095.299a.042.042 0 01-.065.047l-.255-.182-.255.182a.042.042 0 01-.065-.047l.094-.3-.252-.185a.042.042 0 01.025-.077l.313-.002.1-.298a.042.042 0 01.08 0zm0 1.557l.1.298.313.002c.04 0 .057.052.025.076l-.253.187.095.299a.042.042 0 01-.065.047l-.255-.183-.255.183a.042.042 0 01-.065-.047l.094-.3-.252-.186a.042.042 0 01.025-.076l.313-.002.1-.298a.042.042 0 01.08 0zm0 1.557l.1.297.313.003c.04 0 .057.052.025.076l-.253.186.095.3a.042.042 0 01-.065.046l-.255-.182-.255.182a.042.042 0 01-.065-.047l.094-.299-.252-.186a.042.042 0 01.025-.076l.313-.003.1-.297a.042.042 0 01.08 0zm0 1.556l.1.298.313.002c.04 0 .057.052.025.076l-.253.187.095.299a.042.042 0 01-.065.047l-.255-.182-.255.182c-.033.024-.077-.008-.065-.047l.094-.3-.252-.186a.042.042 0 01.025-.076l.313-.002.1-.298a.042.042 0 01.08 0z" fill="#F5F5F5"/></svg>